# xmcd CD database file
#
# Track frame offsets:
#	150
#	18893
#	30476
#	42828
#	58330
#	70393
#	83441
#	94953
#	111439
#	124947
#	146083
#	156095
#	169005
#	180387
#	193921
#
# Disc length: 2766 seconds
#
# Revision: 2
# Processed by: cddbd v1.5.2PL0 Copyright (c) Steve Scherf et al.
# Submitted via: CDex 1.51
#
DISCID=cd0acc0f
DTITLE=Die schönsten Märsche - CD2
DYEAR=2003
DGENRE=Country
TTITLE0=Ägyptischer Marsch
TTITLE1=Gruss an Kiel
TTITLE2=River Kwai Marsch
TTITLE3=Königgrätzer Marsch
TTITLE4=York´scher Marsch
TTITLE5=Fehrbelliner Marsch
TTITLE6=Pepita Marsch
TTITLE7=Hoch Heidecksburg
TTITLE8=Revue Marsch
TTITLE9=Florentier Marsch
TTITLE10=Kreuzritter Fanfare
TTITLE11=Deutschmeister Regiments-Marsch
TTITLE12=Alexander-Marsch
TTITLE13=Das macht die Regimentsmusik
TTITLE14=Schlesier Lied
EXTD=YEAR: 2003
EXTT0=
EXTT1=
EXTT2=
EXTT3=
EXTT4=
EXTT5=
EXTT6=
EXTT7=
EXTT8=
EXTT9=
EXTT10=
EXTT11=
EXTT12=
EXTT13=
EXTT14=
PLAYORDER=
